<?xml version="1.0" ?><!DOCTYPE svg  PUBLIC '-//W3C//DTD SVG 20010904//EN'  'http://www.w3.org/TR/2001/REC-SVG-20010904/DTD/svg10.dtd'><svg xmlns="http://www.w3.org/2000/svg" version="1.0" width="300.000000pt" height="227.000000pt" viewBox="0 0 300.000000 227.000000" preserveAspectRatio="xMidYMid meet">
<metadata>
Created by potrace 1.10, written by Peter Selinger 2001-2011
</metadata>
<g transform="translate(0.000000,227.000000) scale(0.100000,-0.100000)" fill="#000000" stroke="none">
<path d="M2547 2078 c-7 -4 -10 -8 -7 -8 46 -4 361 0 362 4 4 9 -341 13 -355 4z"/>
<path d="M1247 1992 c-34 -37 -15 -82 35 -82 43 0 64 53 32 84 -21 21 -47 20 -67 -2z"/>
<path d="M1582 1737 c-30 -43 -52 -80 -50 -81 2 -2 24 -10 50 -18 l46 -15 7 94 c4 52 6 95 4 97 -2 1 -28 -33 -57 -77z"/>
<path d="M997 1683 c-9 -43 -33 -148 -52 -233 -20 -85 -40 -173 -44 -195 -5 -22 -12 -49 -17 -59 -6 -17 -5 -18 12 -11 10 4 91 36 179 69 l160 62 113 158 c62 87 112 159 110 160 -2 1 -96 28 -211 59 -114 32 -213 60 -221 63 -9 4 -17 -16 -29 -73z m173 2 c181 -49 230 -66 230 -79 0 -8 -19 -40 -43 -73 -24 -32 -64 -87 -89 -123 -43 -62 -50 -67 -129 -98 -46 -19 -105 -42 -131 -53 -63 -26 -80 -25 -74 4 3 12 12 58 21 102 8 44 22 105 30 135 8 30 22 90 31 133 19 91 13 89 154 52z"/>
<path d="M1420 1503 c-46 -65 -92 -129 -104 -142 -20 -23 -20 -24 -1 -17 152 59 298 116 300 118 1 2 5 30 9 63 l7 61 -48 13 c-27 7 -55 15 -64 18 -12 3 -40 -29 -99 -114z m172 55 c11 -19 9 -51 -5 -69 -12 -15 -146 -69 -173 -69 -19 0 -11 14 51 99 45 61 48 63 83 58 19 -4 39 -12 44 -19z"/>
<path d="M1665 1572 c-3 -3 -5 -25 -5 -50 0 -31 4 -43 13 -39 6 2 41 15 76 28 56 20 61 24 40 30 -13 4 -45 14 -71 22 -26 8 -50 12 -53 9z"/>
<path d="M1758 1471 c-48 -20 -90 -39 -93 -43 -4 -3 -11 -98 -16 -210 -5 -111 -11 -215 -14 -230 l-4 -28 248 0 248 0 -57 118 c-31 64 -90 188 -130 275 -40 86 -78 156 -84 156 -6 -1 -50 -18 -98 -38z m119 -54 c38 -74 180 -381 187 -404 l7 -23 -166 0 -166 0 20 29 c20 28 20 29 2 52 -18 22 -19 22 -45 6 -29 -20 -33 -39 -11 -57 21 -17 19 -30 -5 -30 -31 0 -36 28 -25 150 l10 115 23 -23 c22 -23 24 -23 43 -6 23 21 22 52 -3 68 -13 8 -21 6 -36 -7 -10 -9 -22 -17 -27 -17 -13 0 2 131 16 145 18 16 129 54 144 49 5 -2 20 -23 32 -47z m-128 -151 c8 -10 8 -16 -3 -25 -10 -9 -16 -8 -26 3 -12 15 -6 36 9 36 5 0 14 -6 20 -14z m0 -210 c8 -10 8 -16 -3 -25 -10 -9 -16 -8 -26 3 -12 15 -6 36 9 36 5 0 14 -6 20 -14z"/>
<path d="M1705 1174 c-21 -16 -15 -38 17 -58 33 -20 64 34 36 62 -16 16 -29 15 -53 -4z m53 -21 c5 -17 -26 -29 -40 -15 -6 6 -7 15 -3 22 9 14 37 9 43 -7z"/>
<path d="M1817 1072 c-22 -24 -21 -35 1 -55 25 -23 36 -21 52 8 12 22 11 27 -5 45 -22 25 -28 25 -48 2z m40 -18 c8 -20 -8 -36 -26 -25 -15 10 -8 41 9 41 6 0 13 -7 17 -16z"/>
<path d="M1916 1071 c-17 -18 -17 -21 -1 -45 20 -30 30 -32 51 -12 17 18 18 48 2 64 -17 17 -32 15 -52 -7z m43 -15 c8 -10 8 -16 -3 -25 -10 -9 -16 -8 -26 3 -12 15 -6 36 9 36 5 0 14 -6 20 -14z"/>
<path d="M1575 1405 c-16 -8 -92 -38 -169 -67 l-139 -53 -106 -150 c-59 -82 -110 -156 -114 -162 -7 -10 50 -13 271 -13 l279 0 7 178 c4 97 10 201 13 230 6 56 4 58 -42 37z m10 -90 c0 -77 -15 -295 -22 -311 -7 -19 -453 -21 -453 -1 0 12 69 115 140 209 19 26 51 53 70 62 127 54 237 95 250 93 11 -2 15 -16 15 -52z"/>
<path d="M1050 1204 c-74 -30 -140 -54 -147 -54 -7 0 -13 -3 -13 -7 0 -11 102 -163 109 -163 4 0 14 12 23 28 9 15 52 78 97 140 44 61 77 112 73 111 -4 -1 -68 -25 -142 -55z m35 -52 c-25 -46 -69 -105 -82 -109 -14 -5 -69 74 -59 85 13 12 141 60 148 55 5 -2 1 -16 -7 -31z"/>
<path d="M1150 871 c47 -26 162 -93 255 -149 94 -55 171 -99 171 -99 1 1 5 68 9 150 l7 147 -263 0 -263 0 84 -49z m403 -85 c-2 -54 -5 -101 -7 -104 -6 -5 -185 94 -253 140 -23 15 -44 28 -48 28 -8 0 -35 27 -35 35 0 3 78 4 173 3 l172 -3 -2 -99z"/>
<path d="M2092 664 c-30 -21 -29 -59 3 -80 23 -15 27 -15 50 0 32 21 33 59 3 80 -12 9 -25 16 -28 16 -3 0 -16 -7 -28 -16z"/>
<path d="M800 625 c0 -33 2 -35 35 -35 33 0 35 2 35 35 0 33 -2 35 -35 35 -33 0 -35 -2 -35 -35z"/>
<path d="M908 625 c-4 -34 -3 -35 29 -35 31 0 33 2 33 35 0 32 -3 35 -29 35 -25 0 -29 -4 -33 -35z"/>
<path d="M1010 625 c0 -33 2 -35 35 -35 33 0 35 2 35 35 0 33 -2 35 -35 35 -33 0 -35 -2 -35 -35z"/>
<path d="M1120 641 c0 -11 -3 -26 -6 -35 -5 -13 1 -16 33 -16 39 0 39 0 35 35 -4 31 -8 35 -33 35 -22 0 -29 -5 -29 -19z"/>
<path d="M497 303 c-4 -3 -7 -12 -7 -20 0 -11 172 -13 1008 -11 887 3 1007 5 1007 18 0 13 -119 15 -1001 18 -550 1 -1004 -1 -1007 -5z"/>
</g>
</svg>